<svg xmlns="http://www.w3.org/2000/svg" width="1200" height="1200" style="width:100%;height:100%"><defs><clipPath id="a"><path d="M0 0h1200v1200H0z"/></clipPath><clipPath id="c"><path d="M0 0h1200v1200H0z"/></clipPath><clipPath id="b"><path fill="#fff" d="M250 68.482C149.75 68.482 68.482 149.75 68.482 250S149.75 431.518 250 431.518 431.518 350.25 431.518 250 350.25 68.482 250 68.482"/></clipPath></defs><g clip-path="url(#a)"><g clip-path="url(#b)" transform="translate(-6 -6) scale(2.424)" display="block"><path fill="#F1F1F1" d="M-114.646 500h500V0h-500v500z"/><path fill="#7F7F7F" d="M-114.646 500V0h500v500h-500z" opacity=".3"/><path fill="#8FD3E1" d="M135.486 232.836l-27.307-.26L110.264 203H66.31l4.583 46.598-9.068.159.91-16.886-33.381-2.109v12.105l-17.24-.38 1.9-33.854-42.484-1.513-1.016 49.552-27.306-.178L-54.705 227H-98.66l4.583 46.516-20.57.469v113.014h500v-94.775l-12.222-.46 3.334-54.643-33.111-2.081v12.105l-17.51-.379 1.765-33.853-42.55-1.513-1.051 49.551-27.323-.318 2.07-29.633h-32.247l1.212-21.935-33.367-2.14v12.105l-17.255-.379 1.894-33.854-42.488-1.512-1.018 49.551z"/><path fill="#78B8C4" d="M13.842 239.311l1.778 37.055-17.266.412V263.53l-33.036 2.277 3.137 59.809-18.973.859 1.652-19.474h-24.075l1.14 19.049-14.957.178-.56-32.049-23.277.96 1.223 21.865-5.274.135v71.988l66.773.076.655 9.295 194.789.209.24-4.252 158.512.148.32 2.839 78.71.054v-110.82l-11.391.276 2.193 25.711-18.802.274v-9.198l-36.651 1.581.977 12.731-21.75-.536 4.52-44.514h-43.678l2.07 28.307-27.137.378-1.016-47.169-42.23 1.445 1.97 32.234-17.075.363v-11.524l-33.227 1.98 1.835 31.744-24.655-.641 4.527-51.119H82.155l2.069 32.489-27.137.409-1.016-54.24-42.23 1.654z"/><path fill="#7F7F7F" d="M385.354 386.878V500h-500V386.878h500z"/><path fill="#F1F1F1" d="M885.354 500h-500V0h500v500z"/><path fill="#7F7F7F" d="M885.354 500V0h-500v500h500z" opacity=".3"/><path fill="#8FD3E1" d="M635.222 232.836l27.307-.26L660.444 203h43.954l-4.583 46.598 9.068.159-.91-16.886 33.38-2.109v12.105l17.24-.38-1.9-33.854 42.485-1.513 1.016 49.552 27.306-.178L825.413 227h43.955l-4.583 46.516 20.569.469v113.014h-500v-94.775l12.223-.46-3.334-54.643 33.11-2.081v12.105l17.51-.379-1.764-33.853 42.55-1.513 1.05 49.551 27.324-.318-2.07-29.633H544.2l-1.212-21.935 33.367-2.14v12.105l17.255-.379-1.894-33.854 42.488-1.512 1.018 49.551z"/><path fill="#78B8C4" d="M756.866 239.311l-1.778 37.055 17.266.412V263.53l33.036 2.277-3.137 59.809 18.973.859-1.652-19.474h24.075l-1.141 19.049 14.958.178.56-32.049 23.277.96-1.223 21.865 5.274.135v71.988l-66.773.076-.655 9.295-194.79.209-.24-4.252-158.511.148-.321 2.839-78.71.054v-110.82l11.392.276-2.193 25.711 18.802.274v-9.198l36.65 1.581-.976 12.731 21.749-.536-4.52-44.514h43.679l-2.07 28.307 27.137.378 1.016-47.169 42.229 1.445-1.97 32.234 17.076.363v-11.524l33.227 1.98-1.835 31.744 24.655-.641-4.527-51.119h43.678l-2.07 32.489 27.138.409 1.016-54.24 42.229 1.654z"/><path fill="#7F7F7F" d="M385.354 386.878V500h500V386.878h-500z"/><path fill="#F1F1F1" d="M885.354 500h500V0h-500v500z"/><path fill="#7F7F7F" d="M885.354 500V0h500v500h-500z" opacity=".3"/><path fill="#8FD3E1" d="M1135.486 232.836l-27.307-.26 2.085-29.576h-43.954l4.583 46.598-9.068.159.91-16.886-33.381-2.109v12.105l-17.24-.38 1.9-33.854-42.484-1.513-1.016 49.552-27.306-.178L945.295 227H901.34l4.583 46.516-20.57.469v113.014h500v-94.775l-12.222-.46 3.334-54.643-33.111-2.081v12.105l-17.51-.379 1.765-33.853-42.55-1.513-1.051 49.551-27.323-.318 2.07-29.633h-32.247l1.212-21.935-33.367-2.14v12.105l-17.255-.379 1.894-33.854-42.488-1.512-1.018 49.551z"/><path fill="#78B8C4" d="M1013.842 239.311l1.778 37.055-17.266.412V263.53l-33.036 2.277 3.137 59.809-18.973.859 1.652-19.474h-24.075l1.14 19.049-14.957.178-.56-32.049-23.277.96 1.223 21.865-5.274.135v71.988l66.773.076.655 9.295 194.789.209.24-4.252 158.512.148.32 2.839 78.71.054v-110.82l-11.391.276 2.193 25.711-18.802.274v-9.198l-36.651 1.581.977 12.731-21.75-.536 4.52-44.514h-43.678l2.07 28.307-27.137.378-1.016-47.169-42.23 1.445 1.97 32.234-17.075.363v-11.524l-33.227 1.98 1.835 31.744-24.655-.641 4.527-51.119h-43.678l2.069 32.489-27.137.409-1.016-54.24-42.23 1.654z"/><path fill="#7F7F7F" d="M1385.354 386.878V500h-500V386.878h500z"/></g><g clip-path="url(#c)" display="block"><path fill="#E6E6E6" d="M290.427 969.27l595.6-.32c1.908 0 3.47 3.905 3.47 8.683 0 4.775-1.562 8.682-3.47 8.682l-595.6.318c-1.907 0-3.469-3.905-3.469-8.68 0-4.778 1.562-8.683 3.469-8.683z" display="block"/><g display="block"><path fill="#5A5757" d="M280.456 541.414a2 2 0 11-3.958.565c-3.937-27.57-13.466-55.037-27.772-79.842-13.822-23.966-32.101-45.455-54.094-62.151a1.994 1.994 0 012.41-3.176c22.429 17.031 41.062 38.927 55.14 63.342 14.566 25.256 24.27 53.212 28.274 81.262z"/><path fill="#EC8321" d="M196.63 399.128s-14.702 16.422-31.125 26.223c-16.422 9.8-14.57.264-33.112 4.768-18.54 4.503-34.96 34.7-34.96 34.7s31.123-14.833 46.75-14.702c15.628.133 22.246 5.165 40.39 3.842 18.143-1.326 46.751-23.995 46.751-23.995s-11.652.155-23.042-5.275c-11.39-5.43-11.653-25.561-11.653-25.561z"/><path fill="#EC8321" d="M198.746 396.823c-.299 0-3.428 1.89-3.874 3.08-.448 1.193.347 2.713 1.605 2.764 1.258.048 4.254-2.286 4.47-3.28.215-.991-2.201-2.564-2.201-2.564zm25.893 34.202c.4-.298 2.814-3.5 4.85-3.275 2.039.228 3.163 1.42 2.533 2.778-.628 1.358-3.31 2.98-5.366 3.113-2.051.13-2.017-2.616-2.017-2.616z"/></g><g display="block"><path fill="#2C2929" d="M361.59 888.962c-1.9 0-38.117 7.127-47.712 7.818l-1.853-12.809 47.914-6.855 1.651 11.846zm386.15-18.526s-22.775 12.922-32.866 16.153c-10.09 3.232-180.246 3.949-180.246 3.949s-46.061 9.335-50.378 10.05c-4.318.717-51.766 6.106-52.44 2.518-.673-3.592 5.558-43.435 5.558-43.435s70.08 8.634 69.134 11.841c-.946 3.212 4.153 4.657 4.153 4.657l237.084-5.733z"/><path fill="#3D3A39" d="M479.212 847.357c.451-36.964-29.146-66.922-66.104-66.922-36.962 0-67.288 29.958-67.74 66.922-.451 36.958 29.143 66.92 66.104 66.92 36.959 0 67.288-29.962 67.74-66.92z"/><path fill="#EBE1B9" d="M456.526 847.357c.298-24.434-19.266-44.238-43.696-44.238-24.433 0-44.48 19.804-44.778 44.238-.299 24.426 19.264 44.235 43.697 44.235 24.43 0 44.478-19.809 44.777-44.235z"/><path fill="#707071" d="M443.293 847.354a30.55 30.55 0 00-30.624-31.003c-17.123 0-31.175 13.878-31.384 31.003a30.553 30.553 0 0030.626 31.003c17.12 0 31.173-13.882 31.382-31.003z"/><path fill="#EBE1B9" d="M422.122 847.354a9.685 9.685 0 00-9.71-9.831c-5.43 0-9.883 4.4-9.949 9.831a9.684 9.684 0 009.71 9.827c5.43 0 9.882-4.4 9.949-9.827z"/><path fill="#3D3A39" d="M933.666 857.609c.452-36.964-29.145-66.924-66.101-66.924-36.964 0-67.29 29.96-67.742 66.924-.452 36.959 29.143 66.917 66.106 66.917 36.957 0 67.286-29.958 67.737-66.917z"/><path fill="#EBE1B9" d="M910.982 857.609c.299-24.434-19.268-44.24-43.695-44.24-24.434 0-44.482 19.806-44.78 44.24-.299 24.426 19.266 44.233 43.7 44.233 24.426 0 44.477-19.807 44.775-44.233z"/><path fill="#707071" d="M897.747 857.606a30.55 30.55 0 00-30.621-31.005c-17.126 0-31.175 13.88-31.384 31.005a30.55 30.55 0 0030.626 31c17.12 0 31.17-13.881 31.38-31z"/><path fill="#EBE1B9" d="M876.576 857.606a9.685 9.685 0 00-9.709-9.834c-5.43 0-9.883 4.4-9.95 9.834a9.683 9.683 0 009.71 9.825c5.43 0 9.883-4.4 9.95-9.825z"/><path fill="#AF8033" d="M771.281 648.613c-3.419-13.998-12.424-40.922-12.424-40.922l26.837 6.821 4.67 29.435-19.083 4.666z"/><path fill="#F0B358" d="M748.258 585.153c13.882-17.092 66.063-18.238 66.402-18.17l-5.855 54.23c-18.629-.16-81.887-9.786-60.547-36.06z"/><path fill="#EAAC50" d="M748.258 585.15c2.175-2.678 5.291-4.964 9.005-6.915.674 2.113 1.21 5.917 1.583 12.672.574 10.32 22.223 22.027 37.085 29.345-24.97-2.996-65.353-13.337-47.673-35.102z"/><path fill="#DF9F40" d="M761.54 578.86c6.195-5.87 25.03-3.372 27.186 7.898 2.026 10.59-10.75 20.153-20.913 21.117-10.163.96-6.272-29.015-6.272-29.015z"/><path fill="#30130B" d="M595.143 736.978c23.235-43.344-85.65-31.348-100.587-31.687-20-.456-29.76-8.692-48.783-9.347-27.28-.936-51.271-5.27-58.283 10.537-7.014 15.802-2.056 36.515-2.056 36.515 27.971 2.78 201.287 9.69 209.709-6.018z"/><path fill="#A61D35" d="M341.012 769.205c-20.661-2.25-16.065 36.612-11.907 34.19.493-.286 11.907-34.19 11.907-34.19z"/><path fill="#DFA14A" d="M361.061 773.335c-.343-1.258-5.307-6.283-5.307-6.283l-19.423.407-11.384 47.496 36.114-41.62z"/><path fill="#F0B358" d="M602.724 880.301c-.052-5.092-55.25-61.334-45.577-88.972 9.67-27.639 34.654-24.051 37.834-41.281 3.182-17.232 2.37-17.7 2.372-17.763 0-.066-105.54.24-207.304.24-42.772 25.263-78.024 97.629-84.142 143.656l100.374-29.597 119.774 33.948 76.67-.23z"/><path fill="#EEAB46" d="M602.722 880.301c-.052-5.092-55.25-61.334-45.578-88.972 9.67-27.639 33.668-23.24 37.834-41.281.842-3.639 4.023-14.154 2.35-17.775l-.002-.008c-7.177 29.161-83.32 36.179-88.659 48.294-4.43 10.05 8.436 67.074 8.436 67.074s3.168 19.004 12.835 32.89l72.784-.222z"/><path fill="#F5A833" d="M798.097 866.523c72.316.543 45.698-27.863 135.512-37.106-13.52-31.808-48.943-43.715-82.67-35.182-27.979 8.006-52.606 40.447-52.842 72.288z"/><path fill="#F8CE92" d="M798.1 866.523c72.315.543 45.695-27.863 135.508-37.106 1.283-.034.271-5.076-2.482-5.166-8.487-.52-32.53.577-45.608 6.407-15.7 7-33.265 19.923-47.684 24.768-10.934 3.675-30.616 5.389-39.488 6-1.65-.005-2.412 5.148-.246 5.097z"/><path fill="#6A471F" d="M790.178 620.873c-6.23.671-30.051.705-32.416 8.973-2.368 8.269 43.27 131.02 34.163 171.225-9.108 40.204-31.408 58.956-46.709 63.375-15.3 4.421-219.25 8.157-219.25 8.157l.089 7.929s190.959-.487 214.666-1.925c23.71-1.435 66.521-38.41 86.344-74.305 19.821-35.897-36.887-183.43-36.887-183.43z"/><path fill="#F0B358" d="M790.178 620.873c-6.23.671-30.051.705-32.416 8.973-2.368 8.269 43.27 131.02 34.163 171.225-9.81 43.307-40.432 72.61-84.967 73.338-13.575.22-121.974 2.058-180.947 2.176l.044 3.947s190.959-.487 214.666-1.925c53.232-3.221 69.205-76.133 123.035-85.063 4.374-.725-65.497-149.99-73.578-172.671z"/><path fill="#E4A752" d="M790.18 620.87c-.723.078-1.686.148-2.821.223l-10.295.813-.01.002c79.414 130.026 36.782 199.825 25.026 216.235 17.354-19.726 34.83-41.71 61.712-46.167-6.114-23.164-65.53-148.424-73.611-171.106z"/><path fill="#F5A833" d="M401.571 773.738c-88.291 29.31-95.887 106.212-95.887 106.212 3.229 0 227.21.72 227.21.72 10.684-90.56-30.95-140.253-131.323-106.932z"/><path fill="#5A5648" d="M808.982 621.212s5.827-51.73 5.857-54.232c.003-.247-8.244-.543-8.447.398l-5.798 53.357c.093 1.064 8.39 1.512 8.388.477z"/><path fill="#D3EAD6" d="M809.084 619.455c5.732.048 11.164-49.54 5.472-50.715l-5.472 50.715z"/><path fill="#E69623" d="M392.127 782.711c95.145-31.584 137.512 11.417 132.567 93.116a217.475 217.475 0 01-.296 4.235l-.046.576c5.454.017 8.542.03 8.542.03.005-.051.013-.105.019-.156.157-1.326.299-2.644.431-3.95a245.065 245.065 0 00.387-4.109c7.238-85.316-34.866-131.013-132.162-98.715-27.754 9.216-47.536 23.132-61.611 37.884 13.119-11.313 30.13-21.593 52.169-28.91z"/><path fill="#93A8B1" d="M338.825 732.527h161.022l.14-11.538h-161.02l-.142 11.538z"/><path fill="#ED8237" d="M247.979 690.832h166.034l2.147-175.728H250.126l-2.147 175.728z"/><path fill="#F5AC3B" d="M245.53 531.619h174.816l.316-25.845H245.845l-.316 25.845z"/><path fill="#93A8B1" d="M243.754 691.603h174.46l.141-11.538h-174.46l-.14 11.538z"/><path fill="#707E85" d="M331.654 683.817h8.794l15.472 45.052h-8.794l-15.472-45.052zm41.86 0h8.792l15.47 45.052h-8.795l-15.467-45.052z"/><path fill="#B7C8B9" d="M337.66 689.816c1.088 0 1.984-.867 1.997-1.932.013-1.059-.861-1.93-1.95-1.93-1.086 0-1.984.871-1.997 1.93-.013 1.065.864 1.932 1.95 1.932zm41.869-.54c1.088 0 1.984-.866 1.997-1.93.013-1.061-.861-1.93-1.95-1.93-1.086 0-1.984.869-1.997 1.93-.013 1.064.864 1.93 1.95 1.93zm12.647 37.424c1.088 0 1.984-.868 1.997-1.932.013-1.06-.861-1.932-1.95-1.932-1.086 0-1.984.873-1.997 1.932-.013 1.064.864 1.932 1.95 1.932zm-42.186.536c1.088 0 1.983-.866 1.996-1.93.013-1.062-.861-1.93-1.95-1.93-1.085 0-1.983.868-1.996 1.93-.013 1.064.863 1.93 1.95 1.93z"/><path fill="#F7C379" d="M396.155 742.48c-11.514 4.191-57.62 46.592-53.155 51.663 4.469 5.073 33.861-29.767 57.484-38.74 23.62-8.974 56.78-5.202 97.875-4.667 41.095.538 51.419-7.837 41.403-10.05-10.018-2.215-128.954-3.536-143.607 1.794z"/><path fill="#F6AF47" d="M496.988 868.475c-4.203.829-39.24 3.582-36.3-1.872 2.936-5.454 31.693-38.255 4.278-56.559-27.417-18.306-63.041-11.3-90.452-.783-27.41 10.516-44.79 22.985-37.562 19.014 7.264-6.819 21.481-26.143 51.792-37.693 123.951-47.23 141.798 71.27 108.244 77.893z"/><path fill="#F8C77C" d="M922.14 815.36l-9.834 4.397s-17.198-12.568-34.81-15.613c-17.614-3.044-30.364 2.87-30.364 2.87s7.122-9.911 20.969-12.386c33.26-4.982 54.04 20.732 54.04 20.732z"/><path fill="#E87A29" d="M414.145 680.065l1.813-148.446H379.71l-20.479 148.446h54.914z"/><path fill="#EDA331" d="M379.71 531.619h40.639l.315-25.845h-40.638l-.114 9.332-.202 16.513z"/><path fill="#F0BA6C" d="M777.283 627.614l-8.347 2.64s23.049 51.672 32.993 89.724c9.946 38.05.268 95.48 6.47 87.225 6.205-8.256 13.497-61.744 1.926-98.896-11.572-37.153-33.042-80.693-33.042-80.693z"/><path fill="#9D6A28" d="M382.017 815.595h65.954a2.35 2.35 0 012.352 2.38v.003a2.424 2.424 0 01-2.41 2.385H381.96a2.356 2.356 0 01-2.354-2.385v-.002a2.422 2.422 0 012.412-2.38zm-.141 11.5h65.955a2.348 2.348 0 012.351 2.38 2.424 2.424 0 01-2.41 2.385h-65.954a2.356 2.356 0 01-2.354-2.385 2.42 2.42 0 012.412-2.38zm-.147 12.071h65.954a2.352 2.352 0 012.352 2.383v.002a2.424 2.424 0 01-2.41 2.386h-65.954a2.356 2.356 0 01-2.354-2.386v-.002a2.424 2.424 0 012.412-2.383z"/></g><g display="block"><path fill="#E7C0AC" d="M592.912 520.174c5.854 11.708 43.438 119.997 54.208 126.099 10.77 6.1 93.625-42.925 93.625-42.925l-1.304-14.069s-76.502 22.602-77.508 21.833c-1.006-.77-27.93-103.184-31.553-110.355-9.808-19.396-43.322 7.709-37.468 19.417z"/><path fill="#94A097" d="M587.9 499.957c5.386-7.538 20.1-12.922 30.51-12.563 10.409.359 17.506 16.49 19.252 23.231 1.747 6.742 12.517 57.044 12.517 57.044s-36.791 18.745-37.155 17.54c-4.877-16.201-31.677-61.109-25.125-85.252z"/><path fill="#07334B" d="M515.519 648.842c3.948 2.511 153.466 22.633 167.464 38.246 13.999 15.618 62.273 149.132 59.042 149.132-3.232 0-49.22 17.353-49.22 17.353s-31.54-141.356-34.413-140.997c-2.87.357-112.004-9.89-133.9-8.455-21.896 1.435-36.255.359-39.484-15.795-3.231-16.153 30.51-39.484 30.51-39.484z"/><path fill="#F8D7C6" d="M689.797 372.889s26.024 31.141 26.652 32.666c.628 1.524-2.87 15.346-.538 18.037 2.334 2.693 14.539 11.846 13.821 14.539-.717 2.693-6.37 7.09-10.498 6.91-4.13-.179-2.899 2.793-2.899 2.793s4.693 9.861-6.436 22.965c-11.128 13.102-29.793 17.589-38.05 16.512-8.258-1.076-11.128-3.23-11.128-3.23s-10.949-6.102-20.999 5.206c-10.052 11.306-13.463 26.203-13.463 26.203l-40.23-37.101s12.054-4 17.076-12.435c5.028-8.436 7.18-27.462 7.18-27.462s-18.485-33.742-6.64-50.974c11.847-17.23 86.152-14.63 86.152-14.63z"/><path fill="#F8CAB0" d="M674.097 487.46a19.572 19.572 0 01-2.247-.151c-8.256-1.076-11.129-3.231-11.129-3.231s-10.947-6.101-20.999 5.207c-5.054 5.684-8.426 12.275-10.532 17.426-4.235-2.744-8.12-5.629-8.516-6.337-.897-1.616 17.502-22.885 22.437-27.194 4.935-4.306 3.648-6.892 1.883-7.537-1.76-.644-21.988.07-19.295-1.527.56-.33 36.833-4.004 36.976-3.946.957.388 17.68 13.95 15.254 22.613-.715 2.558-2.038 3.905-3.832 4.676z"/><path fill="#A95C40" d="M693.826 403.363c-7.447 4.039-10.857 10.95-7.718 9.692 3.141-1.256 26.111-6.063 27.57-7.743 1.462-1.68-.106-4.014-.737-4.775-2.763-3.357-16.328 1.314-19.115 2.826zm-48.012 42.317c-4.713 13.065-19.075 20.785-25.809 23.296-6.729 2.514-11.036 2.514-10.406 2.245.625-.27 5.294-4.13 4.577-3.682-.718.448-5.566.628-12.205.448-6.642-.18-11.037 2.604-10.499 1.976.538-.63 6.012-4.485 6.012-4.485s-2.965 2.78-9.425 1.794c-6.462-.986-10.226-3.861-9.33-3.413.897.451 9.692-.625 9.692-.625s-9.064-2.604-5.743-3.052c3.319-.448 17.387-2.911 26.33-24.191l36.806 9.688z"/><path fill="#A4563A" d="M700.271 458.299c-22.824 7.584-30.753-12.712-34.76-10.768 0 0-3.284 13.145-5.563 15.526 0 0 7.449-1.435 5.296-.449-11.431 5.239-9.155 34.28-8.527 34.012.628-.27 6.731-5.025 6.731-5.025s-3.68 6.011-2.603 5.473c1.079-.538 9.066-4.487 9.066-4.487l3.767-1.973-1.436 4.397s4.398-2.334 12.116-6.193c7.718-3.857 12.563-16.602 12.563-16.602s-.09 3.32.177 2.783c4.712-9.425 2.921-6.354 3.173-16.694z"/><path fill="#A95C40" d="M684.411 828.86c-.356 3.772-3.56 38.518-2.303 38.159 1.256-.359 41.61-1.183 62.072-3.338 20.46-2.152 42.897-19.385 36.255-23.692-6.641-4.31-41.998-1.614-48.819-4.308-6.821-2.693-14.9-9.153-14.9-9.153l-32.305 2.332z"/><path fill="#76554A" d="M763.603 837.434c-12.53-.482-27.755-.08-31.99-1.753-6.82-2.693-14.897-9.153-14.897-9.153l-6.271.454c2.128 4.996 8.118 14.89 12.292 16.505 5.563 2.155 29.434 3.054 33.742 2.336 3.158-.528 5.856-4.785 7.124-8.389z"/><path fill="#FFF9DC" d="M681.931 860.707c-.177 3.844-.17 6.414.175 6.312 1.258-.359 41.61-1.183 62.073-3.336 20.46-2.154 42.896-19.387 36.256-23.694-1.124-.73-3.076-1.256-5.568-1.646-5.33 5.294-18.235 16.48-33.107 17.707-16.262 1.346-48.642 3.927-59.829 4.657z"/><path fill="#184767" d="M505.108 648.304c3.948 2.511 158.74 27.803 171.949 39.324 13.21 11.524 57.788 148.056 54.557 148.056-3.23 0-49.22 17.35-49.22 17.35s-25.437-125.201-36.566-131.302c-11.128-6.106-109.85-19.584-131.747-18.146-21.896 1.432-36.255.356-39.484-15.795-3.231-16.154 30.51-39.487 30.51-39.487z"/><path fill="#133E5C" d="M557.212 659.91l3.604.756.005.003c2.109.71-31.221 34.978-31.221 34.978 41.28-2.155 112.5 9.037 121.963 16.524 9.464 7.49 36.969 107.558 44.51 118.505 6.571 9.548 28.7 6.251 34.26 5.25-8.156 2.097-47.939 17.111-47.939 17.111s-25.437-125.204-36.566-131.305c-11.128-6.106-109.85-19.584-131.747-18.146-21.896 1.432-36.253.356-39.484-15.795-.407-2.049-.226-4.208.407-6.421 5.512.21 10.321.853 10.321.853 2.092 1.362 50.383-24.71 71.887-22.313z"/><path fill="#ED8237" d="M598.395 471.386c-77.466 11.18-147.825 126.613-128.828 223.943 5.112 26.204 69.714-20.264 95.348-37.424-7.223-41.501 17.589-77.12 44.473-108.137 0 0 17.589-18.129 20.638-25.127 9.708-22.274-23.452-54.436-31.63-53.255z"/><path fill="#3D3A39" d="M651.125 414.572l56.28-5.228c.446-1.847 1.21-2.087 5.107-3.655l4.439-1.782c.964.805 2.082 18.236.286 24.875-1.331 4.94-2.519 7.156-4.538 5.788-5.403-3.667-2.07-19.976-7.31-19.624l-53.547 3.575-.717-3.949z"/><path fill="#707E85" d="M716.563 405.907s.57 15.353.124 20.281c-.505 5.563-1.923 7.789-3.365 6.867-2.89-1.844-2.746-21.682-1.607-24.863.172-.48 4.848-2.285 4.848-2.285z"/><path fill="#81929C" d="M716.563 405.907s.148 3.997.235 8.569c-.987 6.316-2.18 14.1-2.897 18.778a1.191 1.191 0 01-.577-.201c-.717-.458-1.248-2.024-1.621-4.17l3.755-22.538c.642-.259 1.105-.438 1.105-.438z"/><path fill="#EBC1A9" d="M705.684 390.112c1.61 1.956 3.168 3.856 4.574 5.59-13.957 3.793-44.008 12.166-44.008 12.166s.762 2.945 1.685 7.056l44.274-1.733s.9 18.483.837 19.62c-.06 1.137-1.733 1.107-3.842-.597-2.11-1.706-3.724-15.794-3.724-15.794l-36.61 2.87c1.055 5.148 2.061 11.007 2.224 15.232.36 9.332-6.012 20.01-5.743 19.472.272-.538-7.539-49.268-7.539-49.268l47.872-14.614z"/><path fill="#4B3139" d="M599.867 369.905c-12.69 15.858-14.38 45.576-5.205 48.64 9.173 3.064 42.716-.356 39.485-8.612-3.231-8.256-19.395-23.02-11.134-34.125 8.264-11.104 43.62-22.19 40.03-26.902-8.423-11.063-50.49 5.142-63.176 21z"/><path fill="#5A5648" d="M656.331 436.468c.36 1.077 8.256 16.333 18.844 29.438 10.593 13.099 15.798 18.126 15.798 18.126l-12.746 4.305s-22.793-25.306-28.358-35.536c-5.563-10.229-4.305-11.846-4.305-11.846l10.767-4.487z"/><path fill="#41292E" d="M726.833 388.59c-2.155.358-65.394 19.518-65.394 19.518s15.899 46.683-1.796 53.485c-22.226 8.545-69.722-2.337-71.254-8.796-16.89-71.295 6.336-93.986 38.614-108.341 36.947-16.428 85.752-3.122 99.83 44.134z"/><path fill="#36434E" d="M726.833 388.592c-2.155.359-65.394 19.516-65.394 19.516s15.899 46.683-1.796 53.485c-22.226 8.545-69.722-2.334-71.254-8.794-.288-1.22-.562-2.422-.829-3.614 3.008.846 7.868 2.167 13.61 3.548 9.692 2.332 40.743 8.257 48.64 6.64 7.896-1.615 11.847-5.204 12.744-14.178.9-8.974-8.256-39.666-8.256-39.666s55.875-17.802 70.727-22.306a83.965 83.965 0 011.808 5.369z"/><path fill="#F8D7C6" d="M730.622 593.424c1.127-1.212 23.44-19.079 24.878-19.617 1.432-.538 20.82 1.074 22.972 1.97 2.155.898 1.975 21.359 1.975 21.359s-10.28 10.774-12.859 11.22c-2.574.449-12.985-6.552-12.985-6.552l-.9-4.489s-1.643 3.866-5.308 5.435c-3.665 1.565-16.146-.025-14.973-.769 1.175-.742-2.8-8.557-2.8-8.557z"/><path fill="#3D3A39" d="M759.359 599.47c3.956 0 7.18-3.185 7.18-7.09s-3.224-7.09-7.18-7.09c-3.954 0-7.18 3.185-7.18 7.09s3.226 7.09 7.18 7.09z"/><path fill="#F8D7C6" d="M587.817 516.501c5.854 11.708 48.53 124.39 59.303 129.774 10.768 5.384 92.035-43.036 92.035-43.036l-3.765-13.807s-68.526 28.485-76.065 24.177c-7.536-4.307-30.414-109.351-34.04-116.524-9.81-19.4-43.322 7.708-37.468 19.416z"/><path fill="#5A5648" d="M781.684 582.962a3.66 3.66 0 011.97.587c2.667-.267 5.949-.599 6.458-.65 0 0 4.077 2.536 3.204 5.21-.877 2.673-3.107 4.009-4.47 3.917-.608-.041-2.465-.155-4.329-.272-.749.817-1.745 1.312-2.833 1.312-2.332 0-4.22-2.262-4.22-5.052 0-2.788 1.888-5.052 4.22-5.052z"/><path fill="#F8D7C6" d="M767.144 579.634c.808-.448 11.33-3.856 11.33-3.856l12.9 2.6s10.948 10.77 9.782 11.488c-1.166.718-6.717 1.093-7.629-.717-.911-1.811-4.038-4.58-4.038-4.58l-8.256-2.244-8.346 2.424-5.743-5.115z"/><g fill="#A95C40"><path d="M718.822 448.673c-3.059-2.55-22.286.029-26.295 1.973 0 0 4.935 1.166 3.59 1.258-6.167.41-15.393 8.654-19.562 13.012 0 0 7.449-1.437 5.294-.448-11.432 5.238-9.153 34.28-8.528 34.01.628-.268 6.732-5.024 6.732-5.024s-3.68 6.011-2.601 5.473c1.076-.538 9.063-4.487 9.063-4.487l3.77-1.975-1.44 4.4s4.399-2.335 12.117-6.194c7.718-3.859 12.561-16.602 12.561-16.602s-.087 3.321.182 2.783c4.71-9.425 4.863-17.838 5.117-28.18z"/><path d="M720.112 448.43c-7.583-14.204-35.847 16.14-46.127 3.77 0 0 0 3.859 9.064 9.87 15.508 10.29 41.748.546 37.063-13.64z"/></g><path fill="#B7C8B9" d="M582.251 507.147c-2.467-20.245 41.153-37.89 49.12 3.954 1.302 6.84 12.518 57.041 12.518 57.041s-38.05 21.617-38.41 20.415c-4.88-16.204-19.303-49.22-23.228-81.41z"/><path fill="#E77925" d="M588.023 556.25s-6.819 6.821-24.05 28.717c-14.63 18.592-15.027 52.455-22.246 70a37.444 37.444 0 01-.669 1.535c-1.13 2.443-2.424 4.508-3.944 6.099-7.55 7.87-31.55 21.876-50.092 31.689a543.347 543.347 0 01-7.218 3.754 418.751 418.751 0 01-4.65 2.33c3.055.87 6.2 1.682 9.602 2.3.74-.138 1.498-.3 2.273-.492a59.258 59.258 0 005.61-1.697c20.827-7.325 50.632-27.932 68.18-39.819.64-.429 1.26-.85 1.864-1.26a639.58 639.58 0 012.234-1.5c-6.103-35.069 10.666-65.936 32.232-93.378-5.793-16.52-12.425-37.114-14.895-57.383a13.664 13.664 0 01-.056-2.795c-.87 2.47-1.915 5.6-3.149 9.54-4.707 15.051 8.974 42.36 8.974 42.36z"/><path fill="#ABC0AC" d="M597.147 564.528c3.408 9.718 6.523 18.025 8.331 24.03.102.334 3.17-1.123 7.534-3.4.831-.43 1.707-.894 2.62-1.381.524-.276 1.06-.562 1.6-.853a931.787 931.787 0 0010.166-5.546s-6.918.353-12.432-.299c-.8-.094-1.569-.21-2.284-.351-1.406-.276-2.603-.652-3.393-1.156-.715-.456-1.942-3.35-3.469-7.789-.962-2.802-2.05-6.222-3.202-10.03-1.726-5.699-3.605-12.27-5.461-18.96-3.13-11.275-6.196-22.883-8.363-31.214a1816.2 1816.2 0 01-1.396-5.391c-1.05-4.063-1.673-6.523-1.673-6.523s-1.074 1.73-3.527 8.685c-.075.92-.06 1.859.053 2.797 2.47 20.267 9.103 40.861 14.896 57.381z"/><path fill="#F8CAB3" d="M615.872 584.344c12.675 30.099 25.9 59.255 31.25 61.929 9.663 4.833 76.121-33.68 89.638-41.62 1.544-.907 2.395-1.416 2.395-1.416l-.158-.584c-1.97.172-3.413.143-3.413.143s-77.384 39.428-85.281 34.042c-7.132-4.862-20.059-49.425-22.5-58.028-.264-.923-.402-1.432-.402-1.432a932.962 932.962 0 01-10.166 5.548c-.543.291-1.079.575-1.603.853.083.19.16.376.24.565z"/><path fill="#D99E67" d="M738.997 602.653l.158.584a46.908 46.908 0 002.295.145c2.768.11 5.524-.024 6.947-.632 1.384-.592 2.48-1.513 3.31-2.43 1.364-1.507 1.999-3.003 1.999-3.003l.528 2.645.369 1.842s6.108 4.106 10.125 5.83c1.229.523 2.259.826 2.863.725.756-.131 2.176-1.152 3.803-2.526a59.959 59.959 0 001.214-1.06 110.706 110.706 0 003.517-3.289c2.398-2.327 4.325-4.346 4.325-4.346s.007-1.151-.005-2.919v-.104a62.423 62.423 0 01-.926 2.027c-.458.914-6.809 6.057-8.777 7.963-1.283 1.233-3.818 1.502-6.366.785a11.08 11.08 0 01-3.939-2.012c-.627-.507-1.25-1.132-1.847-1.81a28.077 28.077 0 01-1.573-1.984 7.17 7.17 0 01-4.147-3.67c-1.208 1.547-3.43 4.02-6.199 5.404-1.772.887-4.009 1.379-6.006 1.65-.582.078-1.144.139-1.668.185z"/><path fill="#EF9354" d="M499.261 558.679c21.178-33.384 41.64-55.818 63.177-69.101 21.54-13.281 27.32-15.293 24.967-15.902-68.202 18.532-127.675 115.097-120.364 203.335 0 0 11.041-84.949 32.22-118.332z"/><path fill="#9A5237" d="M696.88 461.18l1.801-2.39 1.244-1.65s-9.873 2.22-15.616.761c-5.742-1.457-5.047-.94-7.43-2.516-2.38-1.576-2.896-3.185-2.896-3.185s.01.102.036.29c.066.313.223.878.652 1.661.808 1.467 2.555 3.702 6.34 6.496.62.461 1.298.936 2.035 1.423 5.112 3.394 11.396 4.608 17.349 4.204 6.08-.413 11.82-2.517 15.627-5.711a15.235 15.235 0 002.436-2.55c2.056-2.752 2.824-6.027 1.651-9.583a27.39 27.39 0 01-1.352 2.647c-.475.82-.963 1.552-1.44 2.197-2.453 3.308-4.708 4.428-4.64 4.331.131-.198 1.154-5.43 1.154-5.43-3.423 2.623-8.797 6.567-13.589 8.24-1.168.407-2.3.678-3.362.766z"/></g><g display="block" fill="#F1F2F2"><path d="M254.139 861.626c6.243 0 11.303 4.931 11.303 11.011a10.71 10.71 0 01-.992 4.514c3.913.433 6.943 3.396 6.943 6.988 0 3.886-3.551 7.038-7.932 7.038-2.122 0-4.048-.734-5.47-1.938-1.632 3.564-5.893 6.103-10.893 6.103-4.33 0-8.106-1.906-10.1-4.729-1.263 1.17-3.088 1.905-5.118 1.905-2.566 0-4.802-1.171-5.99-2.909a11.853 11.853 0 01-3.684.577c-5.696 0-10.314-3.952-10.314-8.826 0-.615.076-1.214.215-1.795-.39.074-.793.109-1.206.109-3.506 0-6.346-2.75-6.346-6.146 0-3.395 2.84-6.149 6.346-6.149.631 0 1.238.09 1.813.256.354-3.805 4.089-6.8 8.645-6.8 3.596 0 6.68 1.86 7.996 4.516.204-3.948 4.017-7.094 8.692-7.094 4.298 0 7.87 2.658 8.574 6.156a11.442 11.442 0 017.518-2.787z" opacity=".608"/><path d="M290.823 868.716c4.87 0 8.817 3.84 8.817 8.584 0 1.257-.277 2.45-.774 3.523 3.052.335 5.414 2.648 5.414 5.449 0 3.032-2.771 5.49-6.187 5.49-1.653 0-3.155-.573-4.267-1.514-1.27 2.781-4.595 4.76-8.494 4.76-3.374 0-6.32-1.486-7.876-3.687-.983.912-2.407 1.486-3.992 1.486-1.998 0-3.745-.915-4.67-2.272a9.212 9.212 0 01-2.874.454c-4.44 0-8.044-3.083-8.044-6.886 0-.477.058-.947.168-1.399a5.295 5.295 0 01-.94.084c-2.734 0-4.95-2.143-4.95-4.792 0-2.648 2.216-4.795 4.95-4.795.492 0 .966.071 1.414.197.277-2.968 3.19-5.301 6.741-5.301 2.807 0 5.21 1.453 6.236 3.522.16-3.08 3.135-5.533 6.78-5.533 3.351 0 6.135 2.075 6.686 4.805a8.915 8.915 0 015.862-2.175z"/></g><path fill="#FFF" d="M684.02 438.026c-82.877 3.699-166.022 3.255-249.28 6.586 82.417-10.998 166.35-10.528 249.28-6.586zm783.47 131.669c-122.168-1.677-232.537 1.12-354.225 4.8-32.879.996-21.476.73-54.927.872 133.64-10.161 275.652-16.997 409.151-5.672zm-4.624 143.011c-103.364 1.464-197.716 8.075-299.929 12.273-26.3 1.084-19.452.802-46.238.894 112.496-9.943 233.75-20.839 346.167-13.167zM-155.01 821.82c-128.65 1.166-252.42 2.26-380.97 13.172 93.666-16.701 285.14-21.665 380.97-13.172z" display="block"/></g><path fill="#F0F1F1" d="M345.524 377.249c0-5.263-13.912-15.848-27.212-10.295-3.522-4.135-9.691-6.882-16.718-6.882-.396 0-.786.015-1.176.032a21.257 21.257 0 00-.878-2.111c-3.354-6.996-10.479-11.84-18.757-11.84a20.697 20.697 0 00-10.924 3.123c-2.914-3.59-7.357-5.89-12.346-5.89-.688 0-1.367.058-2.031.143-.388.05-.776.1-1.154.177a16.2 16.2 0 00-1.275-4.604c-2.538-5.686-8.227-9.66-14.86-9.66a16.228 16.228 0 00-3.807.467 21.74 21.74 0 00-1.738-5.098c-3.583-7.398-11.16-12.501-19.933-12.501-7.68 0-14.447 3.917-18.415 9.854a20.827 20.827 0 00-7.4-1.377c-10.828 0-19.72 8.275-20.711 18.846-.487-.029-.98-.048-1.476-.048-11.781 0-21.593 8.411-23.765 19.557a21.6 21.6 0 00-5.294 2.513c-2.676-1.008-5.692-1.583-8.891-1.583-9.25 0-17.027 4.756-19.218 11.185-9.875.756-17.838 3.032-21.205 5.992h259.184zm769.788 26.795c0-5.263-13.91-15.85-27.21-10.3-3.522-4.133-9.69-6.877-16.716-6.877-.397 0-.79.015-1.18.032a21.257 21.257 0 00-.877-2.111c-3.355-6.996-10.48-11.84-18.755-11.84-4.014 0-7.75 1.157-10.93 3.123-2.913-3.59-7.354-5.89-12.343-5.89-.688 0-1.365.058-2.031.143-.388.05-.773.099-1.152.177a16.2 16.2 0 00-1.275-4.604c-2.535-5.689-8.229-9.66-14.859-9.66a16.279 16.279 0 00-3.81.467 21.884 21.884 0 00-1.736-5.099c-3.585-7.395-11.165-12.5-19.935-12.5-7.681 0-14.444 3.915-18.415 9.853a20.764 20.764 0 00-7.4-1.376c-10.828 0-19.72 8.275-20.711 18.846-.49-.029-.977-.048-1.474-.048-11.778 0-21.593 8.411-23.767 19.557a21.582 21.582 0 00-5.292 2.513c-2.676-1.008-5.694-1.583-8.89-1.583-9.253 0-17.03 4.756-19.22 11.185-9.874.756-17.834 3.032-21.204 5.992h259.182zM742.946 250.052c0-5.263-13.908-15.848-27.209-10.295-3.522-4.135-9.691-6.877-16.716-6.877-.397 0-.79.01-1.18.027a21.257 21.257 0 00-.878-2.111c-3.355-6.996-10.479-11.84-18.754-11.84-4.014 0-7.75 1.157-10.93 3.125-2.914-3.592-7.355-5.892-12.343-5.892-.689 0-1.365.06-2.031.143-.388.05-.774.1-1.152.177a16.142 16.142 0 00-1.275-4.604c-2.535-5.686-8.23-9.657-14.859-9.657a16.245 16.245 0 00-3.81.463 21.846 21.846 0 00-1.736-5.097c-3.585-7.398-11.165-12.501-19.935-12.501-7.682 0-14.445 3.917-18.415 9.856a20.752 20.752 0 00-7.398-1.38c-10.828 0-19.72 8.276-20.71 18.847a24.8 24.8 0 00-1.475-.048c-11.783 0-21.593 8.411-23.767 19.557a21.6 21.6 0 00-5.294 2.513c-2.674-1.008-5.694-1.578-8.894-1.578-9.25 0-17.023 4.751-19.215 11.18-9.873.759-17.838 3.032-21.205 5.992h259.181z" display="block"/></g></svg>