<svg style="transition:.3s" viewBox="0 0 1440 100" xmlns="http://www.w3.org/2000/svg" transform="rotate(180)"><defs><linearGradient id="a" x1="0" x2="0" y1="1" y2="0"><stop stop-color="rgba(93, 62, 188, 1)" offset="0%"/><stop stop-color="rgba(93, 62, 188, 1)" offset="100%"/></linearGradient></defs><path fill="url(#a)" d="M0 10l30 10c30 10 90 30 150 38.3 60 8.7 120 4.7 180-6.6C420 40 480 20 540 23.3c60 3.7 120 29.7 180 30C780 53 840 27 900 26.7 960 27 1020 53 1080 65c60 12 120 8 180 1.7 60-6.7 120-16.7 180-15C1500 53 1560 67 1620 65s120-18 180-26.7c60-8.3 120-8.3 180-6.6 60 1.3 120 5.3 180 15 60 10.3 120 26.3 180 25C2400 70 2460 50 2520 40s120-10 180-10h180c60 0 120 0 180 10s120 30 180 36.7c60 6.3 120 .3 180-10 60-9.7 120-23.7 180-28.4 60-5.3 120-1.3 180 1.7s120 7 180 10 120 7 180 10 120 7 150 8.3l30 1.7v30H0z"/></svg>