<svg id="wave" style="transform:rotate(180deg); transition: 0.3s" viewBox="0 0 1440 100" version="1.1" xmlns="http://www.w3.org/2000/svg"><defs><linearGradient id="sw-gradient-0" x1="0" x2="0" y1="1" y2="0"><stop stop-color="rgba(93, 62, 188, 1)" offset="0%"></stop><stop stop-color="rgba(93, 62, 188, 1)" offset="100%"></stop></linearGradient></defs><path style="transform:translate(0, 0px); opacity:1" fill="url(#sw-gradient-0)" d="M0,10L30,20C60,30,120,50,180,58.3C240,67,300,63,360,51.7C420,40,480,20,540,23.3C600,27,660,53,720,53.3C780,53,840,27,900,26.7C960,27,1020,53,1080,65C1140,77,1200,73,1260,66.7C1320,60,1380,50,1440,51.7C1500,53,1560,67,1620,65C1680,63,1740,47,1800,38.3C1860,30,1920,30,1980,31.7C2040,33,2100,37,2160,46.7C2220,57,2280,73,2340,71.7C2400,70,2460,50,2520,40C2580,30,2640,30,2700,30C2760,30,2820,30,2880,30C2940,30,3000,30,3060,40C3120,50,3180,70,3240,76.7C3300,83,3360,77,3420,66.7C3480,57,3540,43,3600,38.3C3660,33,3720,37,3780,40C3840,43,3900,47,3960,50C4020,53,4080,57,4140,60C4200,63,4260,67,4290,68.3L4320,70L4320,100L4290,100C4260,100,4200,100,4140,100C4080,100,4020,100,3960,100C3900,100,3840,100,3780,100C3720,100,3660,100,3600,100C3540,100,3480,100,3420,100C3360,100,3300,100,3240,100C3180,100,3120,100,3060,100C3000,100,2940,100,2880,100C2820,100,2760,100,2700,100C2640,100,2580,100,2520,100C2460,100,2400,100,2340,100C2280,100,2220,100,2160,100C2100,100,2040,100,1980,100C1920,100,1860,100,1800,100C1740,100,1680,100,1620,100C1560,100,1500,100,1440,100C1380,100,1320,100,1260,100C1200,100,1140,100,1080,100C1020,100,960,100,900,100C840,100,780,100,720,100C660,100,600,100,540,100C480,100,420,100,360,100C300,100,240,100,180,100C120,100,60,100,30,100L0,100Z"></path></svg>