<svg id="visual" viewBox="0 0 1260 160" width="1260" height="160" xmlns="http://www.w3.org/2000/svg" xmlns:xlink="http://www.w3.org/1999/xlink" version="1.1"><rect x="0" y="0" width="1260" height="160" fill="transparent"></rect><path d="M0 97L17.5 104.5C35 112 70 127 105 128.7C140 130.3 175 118.7 210 109.7C245 100.7 280 94.3 315 88.2C350 82 385 76 420 75.5C455 75 490 80 525 88.3C560 96.7 595 108.3 630 115.5C665 122.7 700 125.3 735 122.5C770 119.7 805 111.3 840 100.8C875 90.3 910 77.7 945 81.2C980 84.7 1015 104.3 1050 105.2C1085 106 1120 88 1155 73.5C1190 59 1225 48 1242.5 42.5L1260 37L1260 0L1242.5 0C1225 0 1190 0 1155 0C1120 0 1085 0 1050 0C1015 0 980 0 945 0C910 0 875 0 840 0C805 0 770 0 735 0C700 0 665 0 630 0C595 0 560 0 525 0C490 0 455 0 420 0C385 0 350 0 315 0C280 0 245 0 210 0C175 0 140 0 105 0C70 0 35 0 17.5 0L0 0Z" fill="#5d3ebc" stroke-linecap="round" stroke-linejoin="miter"></path></svg>